<svg width="157" height="24" viewBox="0 0 157 24" fill="none" xmlns="http://www.w3.org/2000/svg">
<path d="M11.2094 15.8396L1.75059 0.366699H0V23.6891H2.48471V5.78788L10.3059 18.6349H12.0565L19.8777 5.78788V23.6891H22.3906V0.366699H20.64L11.2094 15.8396Z" fill="white"/>
<path d="M35.9433 0.366699L26.5974 23.6891H29.2516L36.8469 4.37611L44.3857 23.6891H47.0963L37.8069 0.366699H35.9433Z" fill="white"/>
<path d="M66.7191 18.8891L53.0815 0.366699H51.3309V23.6891H53.8156V5.1667L67.4533 23.6891H69.2321V0.366699H66.7191V18.8891Z" fill="white"/>
<path d="M77.6474 0.366699H75.1627V23.6891H77.6474V0.366699Z" fill="white"/>
<path d="M85.2131 0.366699H83.5754V23.6891H86.0601V13.1291H97.7213V10.8702H86.0601V2.62552H98.286V0.366699H86.0601H85.2131Z" fill="white"/>
<path d="M105.262 12.8467H117.064V10.6443H105.262V2.62552H117.939V0.366699H105.262H104.415H102.805V23.6891H104.415H105.262H118.137V21.402H105.262V12.8467Z" fill="white"/>
<path d="M133.892 12.5929C133.214 12.0847 132.452 11.6329 131.605 11.2941C130.757 10.9553 129.939 10.6447 129.12 10.3624C128.301 10.08 127.539 9.76941 126.833 9.40236C126.127 9.0353 125.562 8.58353 125.167 8.04706C124.743 7.51059 124.546 6.80471 124.546 5.90118C124.546 4.77177 124.941 3.89647 125.76 3.24706C126.579 2.62588 127.652 2.28706 129.007 2.28706C130.165 2.28706 131.153 2.51294 132.028 2.96471C132.903 3.41647 133.666 4.06588 134.4 4.94118L136.094 3.24706C135.303 2.25882 134.315 1.46824 133.129 0.875294C131.943 0.282353 130.588 0 129.092 0C127.736 0 126.522 0.254118 125.477 0.734118C124.405 1.21412 123.586 1.92 122.965 2.82353C122.343 3.72706 122.061 4.8 122.061 6.07059C122.061 7.25647 122.259 8.24471 122.682 9.00706C123.106 9.76941 123.67 10.4188 124.348 10.8988C125.054 11.4071 125.816 11.8024 126.635 12.1412C127.454 12.48 128.301 12.7906 129.12 13.0729C129.967 13.3553 130.729 13.6941 131.407 14.0612C132.085 14.4282 132.649 14.9082 133.073 15.5294C133.496 16.1506 133.722 16.8847 133.722 17.8165C133.722 19.0024 133.27 19.9624 132.339 20.64C131.407 21.3177 130.193 21.6565 128.725 21.6565C127.256 21.6565 126.042 21.3741 124.969 20.8377C123.896 20.3012 122.993 19.4824 122.202 18.3529L120.48 20.0471C121.468 21.2894 122.626 22.2494 123.925 22.9553C125.223 23.6329 126.805 24 128.612 24C130.955 24 132.819 23.4353 134.174 22.3341C135.529 21.2047 136.235 19.6518 136.235 17.6471C136.235 16.4047 136.009 15.3882 135.586 14.5694C135.162 13.7788 134.597 13.1012 133.92 12.5929H133.892Z" fill="white"/>
<path d="M156.903 0.366699H138.014V2.62552H146.202V23.6891H148.715V2.62552H156.903V0.366699Z" fill="white"/>
</svg>
