<svg width="314" height="48" viewBox="0 0 314 48" fill="none" xmlns="http://www.w3.org/2000/svg">
<g opacity="0.8">
<path d="M22.4188 31.6793L3.50118 0.733459H0V47.3782H4.96941V11.5758L20.6118 37.2699H24.1129L39.7553 11.5758V47.3782H44.7812V0.733459H41.28L22.4188 31.6793Z" fill="#343434"/>
<path d="M71.8866 0.733459L53.1948 47.3782H58.5031L73.6936 8.75228L88.7713 47.3782H94.1925L75.6136 0.733459H71.8866Z" fill="#8A42FB"/>
<path d="M133.438 37.7782L106.163 0.733459H102.662V47.3782H107.631V10.3335L134.906 47.3782H138.464V0.733459H133.438V37.7782Z" fill="#343434"/>
<path d="M155.295 0.733459H150.325V47.3782H155.295V0.733459Z" fill="#343434"/>
<path d="M170.426 0.733459H167.151V47.3782H172.12V26.2582H195.443V21.7405H172.12V5.25111H196.572V0.733459H172.12H170.426Z" fill="#343434"/>
<path d="M210.523 25.6935H234.128V21.2888H210.523V5.25111H235.879V0.733459H210.523H208.829H205.61V47.3782H208.829H210.523H236.274V42.8041H210.523V25.6935Z" fill="#343434"/>
<path d="M267.783 25.1859C266.428 24.1694 264.903 23.2659 263.209 22.5882C261.515 21.9106 259.877 21.2894 258.24 20.7247C256.602 20.16 255.077 19.5388 253.665 18.8047C252.254 18.0706 251.124 17.1671 250.334 16.0941C249.487 15.0212 249.091 13.6094 249.091 11.8024C249.091 9.54353 249.882 7.79294 251.52 6.49412C253.157 5.25176 255.303 4.57412 258.014 4.57412C260.329 4.57412 262.305 5.02588 264.056 5.92941C265.807 6.83294 267.331 8.13176 268.8 9.88235L272.188 6.49412C270.607 4.51765 268.63 2.93647 266.258 1.75059C263.887 0.564706 261.176 0 258.183 0C255.473 0 253.044 0.508235 250.955 1.46824C248.809 2.42824 247.171 3.84 245.929 5.64706C244.687 7.45412 244.122 9.6 244.122 12.1412C244.122 14.5129 244.517 16.4894 245.364 18.0141C246.211 19.5388 247.341 20.8376 248.696 21.7976C250.108 22.8141 251.633 23.6047 253.27 24.2824C254.908 24.96 256.602 25.5812 258.24 26.1459C259.934 26.7106 261.458 27.3882 262.814 28.1224C264.169 28.8565 265.298 29.8165 266.145 31.0588C266.993 32.3012 267.444 33.7694 267.444 35.6329C267.444 38.0047 266.541 39.9247 264.677 41.28C262.814 42.6353 260.385 43.3129 257.449 43.3129C254.513 43.3129 252.084 42.7482 249.938 41.6753C247.793 40.6024 245.985 38.9647 244.404 36.7059L240.96 40.0941C242.936 42.5788 245.251 44.4988 247.849 45.9106C250.447 47.2659 253.609 48 257.223 48C261.91 48 265.637 46.8706 268.348 44.6682C271.058 42.4094 272.47 39.3035 272.47 35.2941C272.47 32.8094 272.018 30.7765 271.171 29.1388C270.324 27.5576 269.195 26.2024 267.84 25.1859H267.783Z" fill="#343434"/>
<path d="M313.806 0.733459H276.028V5.25111H292.404V47.3782H297.43V5.25111H313.806V0.733459Z" fill="#343434"/>
</g>
</svg>
