<svg width="314" height="127" viewBox="0 0 314 127" fill="none" xmlns="http://www.w3.org/2000/svg">
<path d="M22.4188 31.6793L3.50118 0.733459H0V47.3782H4.96941V11.5758L20.6118 37.2699H24.1129L39.7553 11.5758V47.3782H44.7812V0.733459H41.28L22.4188 31.6793Z" fill="white"/>
<path d="M71.8866 0.733459L53.1948 47.3782H58.5031L73.6936 8.75228L88.7713 47.3782H94.1925L75.6136 0.733459H71.8866Z" fill="#8A42FB"/>
<path d="M133.438 37.7782L106.163 0.733459H102.662V47.3782H107.631V10.3335L134.906 47.3782H138.464V0.733459H133.438V37.7782Z" fill="white"/>
<path d="M155.295 0.733459H150.325V47.3782H155.295V0.733459Z" fill="white"/>
<path d="M170.426 0.733459H167.151V47.3782H172.12V26.2582H195.443V21.7405H172.12V5.25111H196.572V0.733459H172.12H170.426Z" fill="white"/>
<path d="M210.523 25.6935H234.128V21.2888H210.523V5.25111H235.879V0.733459H210.523H208.829H205.61V47.3782H208.829H210.523H236.274V42.8041H210.523V25.6935Z" fill="white"/>
<path d="M267.783 25.1859C266.428 24.1694 264.903 23.2659 263.209 22.5882C261.515 21.9106 259.877 21.2894 258.24 20.7247C256.602 20.16 255.077 19.5388 253.665 18.8047C252.254 18.0706 251.124 17.1671 250.334 16.0941C249.487 15.0212 249.091 13.6094 249.091 11.8024C249.091 9.54353 249.882 7.79294 251.52 6.49412C253.157 5.25176 255.303 4.57412 258.014 4.57412C260.329 4.57412 262.305 5.02588 264.056 5.92941C265.807 6.83294 267.331 8.13176 268.8 9.88235L272.188 6.49412C270.607 4.51765 268.63 2.93647 266.258 1.75059C263.887 0.564706 261.176 0 258.183 0C255.473 0 253.044 0.508235 250.955 1.46824C248.809 2.42824 247.171 3.84 245.929 5.64706C244.687 7.45412 244.122 9.6 244.122 12.1412C244.122 14.5129 244.517 16.4894 245.364 18.0141C246.211 19.5388 247.341 20.8376 248.696 21.7976C250.108 22.8141 251.633 23.6047 253.27 24.2824C254.908 24.96 256.602 25.5812 258.24 26.1459C259.934 26.7106 261.458 27.3882 262.814 28.1224C264.169 28.8565 265.298 29.8165 266.145 31.0588C266.993 32.3012 267.444 33.7694 267.444 35.6329C267.444 38.0047 266.541 39.9247 264.677 41.28C262.814 42.6353 260.385 43.3129 257.449 43.3129C254.513 43.3129 252.084 42.7482 249.938 41.6753C247.793 40.6024 245.985 38.9647 244.404 36.7059L240.96 40.0941C242.936 42.5788 245.251 44.4988 247.849 45.9106C250.447 47.2659 253.609 48 257.223 48C261.91 48 265.637 46.8706 268.348 44.6682C271.058 42.4094 272.47 39.3035 272.47 35.2941C272.47 32.8094 272.018 30.7765 271.171 29.1388C270.324 27.5576 269.195 26.2024 267.84 25.1859H267.783Z" fill="white"/>
<path d="M313.806 0.733459H276.028V5.25111H292.404V47.3782H297.43V5.25111H313.806V0.733459Z" fill="white"/>
<g opacity="0.8">
<path d="M22.4188 99.6793L3.50118 68.7335H0V115.378H4.96941V79.5758L20.6118 105.27H24.1129L39.7553 79.5758V115.378H44.7812V68.7335H41.28L22.4188 99.6793Z" fill="#343434"/>
<path d="M71.8866 68.7335L53.1948 115.378H58.5031L73.6936 76.7523L88.7713 115.378H94.1925L75.6136 68.7335H71.8866Z" fill="#8A42FB"/>
<path d="M133.438 105.778L106.163 68.7335H102.662V115.378H107.631V78.3335L134.906 115.378H138.464V68.7335H133.438V105.778Z" fill="#343434"/>
<path d="M155.295 68.7335H150.325V115.378H155.295V68.7335Z" fill="#343434"/>
<path d="M170.426 68.7335H167.151V115.378H172.12V94.2582H195.443V89.7405H172.12V73.2511H196.572V68.7335H172.12H170.426Z" fill="#343434"/>
<path d="M210.523 93.6935H234.128V89.2888H210.523V73.2511H235.879V68.7335H210.523H208.829H205.61V115.378H208.829H210.523H236.274V110.804H210.523V93.6935Z" fill="#343434"/>
<path d="M267.783 93.1859C266.428 92.1694 264.903 91.2659 263.209 90.5882C261.515 89.9106 259.877 89.2894 258.24 88.7247C256.602 88.16 255.077 87.5388 253.665 86.8047C252.254 86.0706 251.124 85.1671 250.334 84.0941C249.487 83.0212 249.091 81.6094 249.091 79.8024C249.091 77.5435 249.882 75.7929 251.52 74.4941C253.157 73.2518 255.303 72.5741 258.014 72.5741C260.329 72.5741 262.305 73.0259 264.056 73.9294C265.807 74.8329 267.331 76.1318 268.8 77.8824L272.188 74.4941C270.607 72.5176 268.63 70.9365 266.258 69.7506C263.887 68.5647 261.176 68 258.183 68C255.473 68 253.044 68.5082 250.955 69.4682C248.809 70.4282 247.171 71.84 245.929 73.6471C244.687 75.4541 244.122 77.6 244.122 80.1412C244.122 82.5129 244.517 84.4894 245.364 86.0141C246.211 87.5388 247.341 88.8376 248.696 89.7976C250.108 90.8141 251.633 91.6047 253.27 92.2824C254.908 92.96 256.602 93.5812 258.24 94.1459C259.934 94.7106 261.458 95.3882 262.814 96.1224C264.169 96.8565 265.298 97.8165 266.145 99.0588C266.993 100.301 267.444 101.769 267.444 103.633C267.444 106.005 266.541 107.925 264.677 109.28C262.814 110.635 260.385 111.313 257.449 111.313C254.513 111.313 252.084 110.748 249.938 109.675C247.793 108.602 245.985 106.965 244.404 104.706L240.96 108.094C242.936 110.579 245.251 112.499 247.849 113.911C250.447 115.266 253.609 116 257.223 116C261.91 116 265.637 114.871 268.348 112.668C271.058 110.409 272.47 107.304 272.47 103.294C272.47 100.809 272.018 98.7765 271.171 97.1388C270.324 95.5576 269.195 94.2024 267.84 93.1859H267.783Z" fill="#343434"/>
<path d="M313.806 68.7335H276.028V73.2511H292.404V115.378H297.43V73.2511H313.806V68.7335Z" fill="#343434"/>
</g>
</svg>
