<svg width="32" height="32" viewBox="0 0 32 32" fill="none" xmlns="http://www.w3.org/2000/svg">
<path d="M18.845 9.63301C18.65 9.43801 18.333 9.43801 18.138 9.63301C17.943 9.82801 17.943 10.145 18.138 10.34L23.295 15.497H7.49805C7.22205 15.497 6.99805 15.721 6.99805 15.997C6.99805 16.273 7.22205 16.497 7.49805 16.497H23.295L18.138 21.654C17.943 21.849 17.943 22.166 18.138 22.361C18.236 22.459 18.364 22.507 18.492 22.507C18.62 22.507 18.748 22.458 18.846 22.361L24.857 16.35C24.951 16.256 25.003 16.129 25.003 15.996C25.003 15.863 24.95 15.736 24.857 15.642L18.846 9.63201L18.845 9.63301Z" fill="white"/>
</svg>
