<svg width="24" height="24" viewBox="0 0 24 24" fill="none" xmlns="http://www.w3.org/2000/svg">
<path d="M21.0551 13.1499C22.3261 12.9249 22.3351 11.3399 20.9631 11.2889C19.5911 11.2389 19.5081 11.9119 18.7401 11.1749C17.9711 10.4379 19.9341 7.74788 17.8941 7.87188C16.0201 7.98688 16.6221 13.5529 14.4531 12.6229C13.3841 12.1649 14.2851 10.5449 15.1311 7.86488C15.6151 6.33388 15.2481 5.22188 14.4571 5.19388C13.3721 5.15588 13.4721 7.83188 12.5821 8.00388C11.9941 8.11788 10.7441 4.60588 9.51906 5.42888C8.77806 5.92688 9.37906 7.38088 10.2611 8.74688C11.1431 10.1129 11.8611 12.2779 10.1941 12.3799C8.52706 12.4819 8.17006 10.3969 7.77806 8.42288C7.38606 6.44888 5.77206 6.58188 5.39506 7.64488C4.99506 8.77188 6.89106 10.7049 6.59706 11.2389C6.18306 11.9879 3.41006 9.65588 2.84006 11.0439C2.23506 12.5169 5.20906 12.7389 5.30606 13.5239C5.44706 14.6689 3.46206 13.8349 2.50606 14.1949C1.76306 14.4749 1.50406 16.1749 4.10106 16.2149C7.93306 16.2719 7.67806 18.6729 9.32806 19.7179C10.5631 20.7239 12.9651 21.1209 14.5611 20.3129C12.2521 20.2509 9.32006 18.2809 9.26206 17.2399C9.15206 15.2909 11.9751 17.8649 12.6051 16.9069C13.0271 16.2639 12.1571 15.5909 12.0721 14.2819C11.9861 12.9729 13.3981 12.8299 13.7191 14.0149C14.2371 15.9189 15.5741 16.3209 15.5801 15.6539C15.6031 13.2389 17.2621 13.3649 17.3851 15.6309C17.4141 16.1619 17.4431 16.6649 17.4321 17.1409C17.9341 17.0389 18.4471 17.0049 18.9581 17.0379C21.3301 17.1559 21.6611 15.1989 19.1491 14.9009C18.4571 14.8189 19.0141 13.5079 21.0541 13.1479L21.0551 13.1499Z" fill="white"/>
<path d="M20.7381 9.69588C21.1981 9.67988 21.5581 9.29488 21.5431 8.83488C21.5281 8.38588 21.1601 8.02988 20.7111 8.02988C20.2431 8.03788 19.8701 8.42288 19.8781 8.89088C19.8931 9.35088 20.2781 9.71088 20.7381 9.69588Z" fill="white"/>
<path d="M7.67406 3.25488C7.29106 3.26188 6.98606 3.57688 6.99206 3.95988C7.00506 4.33688 7.32006 4.63188 7.69706 4.61988C8.07406 4.60788 8.36906 4.29188 8.35706 3.91488C8.34506 3.54688 8.04306 3.25488 7.67506 3.25488H7.67406Z" fill="white"/>
</svg>
