<svg width="32" height="32" viewBox="0 0 32 32" fill="none" xmlns="http://www.w3.org/2000/svg">
<path d="M21.5362 24.7235C21.3562 24.7235 21.1562 24.7035 20.9462 24.6535C20.9062 24.6435 20.8562 24.6335 20.8162 24.6135L7.10617 18.7335C7.10617 18.7335 7.02617 18.6935 6.98617 18.6735C6.87617 18.6035 6.32617 18.1835 6.32617 17.1835C6.32617 16.2435 6.91617 15.6335 6.98617 15.5635C7.03617 15.5135 7.08617 15.4735 7.14617 15.4435L23.0262 6.40353C23.0262 6.40353 23.1262 6.35353 23.1862 6.33353C23.7862 6.15353 25.0562 6.14353 25.6062 7.40353C25.6662 7.53353 25.6862 7.67353 25.6662 7.81353L23.4862 23.0435C23.4662 23.1535 23.3162 23.9435 22.6262 24.4035C22.3862 24.5635 22.0362 24.7135 21.5362 24.7135V24.7235ZM21.3362 23.2035C21.4862 23.2335 21.6662 23.2435 21.7862 23.1635C21.9262 23.0735 21.9962 22.8735 22.0062 22.8035L24.1362 7.87353C23.9862 7.72353 23.7862 7.74353 23.6762 7.76353L7.99617 16.6735C7.92617 16.7635 7.82617 16.9535 7.82617 17.1735C7.82617 17.3035 7.84617 17.3835 7.86617 17.4235L21.3362 23.1935V23.2035Z" fill="white"/>
<path d="M14.0362 25.7535C12.8762 25.7535 12.1762 24.8535 11.9362 24.3335C11.8962 24.2435 11.8762 24.1435 11.8762 24.0535L11.7662 20.2435C11.7662 20.0535 11.8262 19.8635 11.9662 19.7135L23.5262 7.00353C23.8062 6.69353 24.2762 6.67353 24.5862 6.95353C24.8962 7.23353 24.9162 7.70353 24.6362 8.01353L13.2762 20.5035L13.3662 23.8235C13.4662 23.9835 13.6962 24.2535 14.0362 24.2535C14.5562 24.2535 14.7962 23.8735 14.7962 23.8735C14.8162 23.8435 14.8362 23.8135 14.8562 23.7835L16.3762 21.8235C16.6262 21.4935 17.0962 21.4335 17.4262 21.6935C17.7562 21.9435 17.8162 22.4235 17.5562 22.7435L16.0562 24.6635C15.7862 25.0935 15.0962 25.7535 14.0262 25.7535H14.0362Z" fill="white"/>
</svg>
