<svg width="32" height="32" viewBox="0 0 32 32" fill="none" xmlns="http://www.w3.org/2000/svg">
<path d="M7.50004 22.75C7.08604 22.75 6.75004 23.086 6.75004 23.5C6.75004 23.914 7.08604 24.25 7.50004 24.25H24.5C24.914 24.25 25.25 23.914 25.25 23.5C25.25 23.086 24.914 22.75 24.5 22.75H7.50004Z" fill="white"/>
<path d="M25.93 10.95C26.131 10.429 26.076 9.85899 25.779 9.38699C25.482 8.91499 24.991 8.61899 24.433 8.57499L23.396 8.49499C22.594 8.43699 21.784 8.63699 21.106 9.06799L18.842 10.507L11.571 8.66299C10.963 8.51999 10.317 8.64099 9.76904 9.01299L7.71804 10.552C7.51004 10.707 7.39804 10.96 7.42104 11.219C7.44404 11.478 7.60004 11.705 7.83204 11.823L12.828 14.328L11.315 15.289L8.56304 14.428C8.35004 14.362 8.12204 14.393 7.93704 14.511L6.29704 15.555C6.10704 15.676 5.98204 15.875 5.95404 16.099C5.92804 16.322 6.00304 16.545 6.15804 16.707L9.33804 20.018C9.48004 20.165 9.67504 20.248 9.87904 20.248L13.583 20.25C13.726 20.25 13.865 20.209 13.985 20.133L24.073 13.721C24.756 13.286 25.27 12.659 25.56 11.905L25.927 10.951L25.93 10.95ZM24.531 10.41L24.163 11.365C23.989 11.817 23.681 12.194 23.271 12.455L13.368 18.75L10.201 18.748L7.87704 16.328L8.45004 15.964L11.202 16.824C11.411 16.888 11.64 16.859 11.828 16.741L14.753 14.884C14.981 14.739 15.113 14.484 15.1 14.213C15.087 13.942 14.929 13.701 14.687 13.58L9.58904 11.024L10.641 10.234C10.812 10.117 11.027 10.078 11.218 10.121L18.787 12.041C18.986 12.092 19.2 12.058 19.374 11.947L21.911 10.334C22.316 10.076 22.801 9.94599 23.281 9.99099L24.318 10.071C24.426 10.079 24.485 10.147 24.509 10.186C24.534 10.226 24.572 10.307 24.531 10.41Z" fill="white"/>
</svg>
