<svg width="24" height="24" viewBox="0 0 24 24" fill="none" xmlns="http://www.w3.org/2000/svg">
<path d="M12.002 3L11.082 4.412L10.163 5.831C11.366 5.502 12.636 5.499 13.84 5.824L12.002 3Z" fill="white"/>
<path d="M15.352 7.386C14.59 7.057 13.782 6.846 12.956 6.758L16.036 11.505C15.345 11.308 14.64 11.166 13.927 11.08L17.993 17.344C17.279 17.141 16.554 16.977 15.822 16.854L18.512 20.991C19.104 20.297 19.59 19.518 19.952 18.681C20.862 16.542 20.862 14.124 19.952 11.985C19.073 9.914 17.423 8.265 15.352 7.386Z" fill="white"/>
<path d="M5.89298 9.243C3.40998 11.721 2.67898 15.458 4.04598 18.689C4.40198 19.53 4.88698 20.309 5.48398 21L8.17298 16.862C7.44198 16.976 6.71898 17.137 6.00798 17.343L10.07 11.087C9.35798 11.167 8.65498 11.306 7.96598 11.503L11.047 6.759C10.224 6.846 9.41898 7.058 8.65898 7.387C7.62998 7.829 6.69198 8.458 5.89298 9.243Z" fill="white"/>
</svg>
