<svg width="24" height="24" viewBox="0 0 24 24" fill="none" xmlns="http://www.w3.org/2000/svg">
<path d="M14.871 17.7808C15.668 17.7808 16.432 17.7838 17.195 17.7738C17.249 17.7738 17.324 17.6768 17.353 17.6098C18.862 14.0448 20.37 10.4788 21.877 6.91176C21.912 6.82876 21.953 6.74576 21.999 6.61976C21.887 6.61976 21.777 6.62076 21.699 6.62076C21.128 6.62076 20.224 6.62476 19.647 6.61276C19.647 6.61276 19.618 6.68976 19.518 6.92276C18.136 10.1518 16.753 13.3798 15.368 16.6068C15.204 16.9888 15.044 17.3728 14.871 17.7808Z" fill="white"/>
<path d="M11.764 16.7498L10.041 15.0268C10.017 15.0468 9.98799 15.0698 9.94499 15.1018C8.71199 16.0018 7.02699 15.9538 5.84599 14.9868C4.52899 13.9028 4.18899 11.7588 5.10199 10.2638C5.13099 10.2168 5.15399 10.1838 5.17299 10.1588L3.39499 8.38076C1.62799 10.2968 1.35499 13.9978 3.65999 16.2938C6.04499 18.6688 9.77799 18.4168 11.764 16.7498Z" fill="white"/>
<path d="M5.83199 9.05476C6.92699 8.20076 8.43599 8.11176 9.62299 8.83176C10.94 9.64676 11.517 11.2098 11.215 12.8388C11.143 13.2938 11.003 13.7348 10.8 14.1478L12.565 15.9518C14.226 14.1348 14.663 10.2858 12.3 7.81076C9.91199 5.31076 6.07999 5.55576 4.10099 7.29776L5.82499 9.06076L5.83199 9.05476Z" fill="white"/>
<path d="M17.576 8.53976L18.394 6.63376H14.062C14.062 7.24076 14.059 7.94476 14.069 8.53976C14.069 8.53976 16.381 8.54476 17.576 8.53976Z" fill="white"/>
</svg>
