<svg width="32" height="32" viewBox="0 0 32 32" fill="none" xmlns="http://www.w3.org/2000/svg">
<path d="M20.248 8.25C18.976 8.25 17.779 8.748 16.881 9.651L15.999 10.533L15.106 9.641C14.21 8.744 13.017 8.25 11.748 8.25C9.12905 8.25 6.99805 10.381 6.99805 13C6.99805 14.101 7.39305 15.171 8.11105 16.031C8.13605 16.088 8.17205 16.14 8.21605 16.185L15.639 23.608C15.733 23.702 15.86 23.754 15.993 23.754C16.126 23.754 16.253 23.701 16.347 23.608L23.769 16.186C23.806 16.149 23.835 16.108 23.858 16.063C24.594 15.199 24.999 14.116 24.999 13C24.999 10.381 22.868 8.25 20.249 8.25H20.248ZM23.028 15.492C23.007 15.515 22.989 15.54 22.973 15.567L15.993 22.548L9.03405 15.59C9.01505 15.554 8.99305 15.521 8.96605 15.49C8.34205 14.793 7.99805 13.909 7.99805 13C7.99805 10.932 9.68105 9.25 11.748 9.25C12.75 9.25 13.691 9.64 14.399 10.348L15.645 11.594C15.833 11.782 16.165 11.782 16.352 11.594L17.588 10.357C18.298 9.643 19.242 9.25 20.247 9.25C22.314 9.25 23.997 10.932 23.997 13C23.997 13.911 23.652 14.796 23.027 15.492H23.028Z" fill="#8A42FB"/>
</svg>
