<svg width="30" height="27" viewBox="0 0 30 27" fill="none" xmlns="http://www.w3.org/2000/svg">
<path d="M15.1021 5.83325C15.1021 5.83325 14.8516 5.83325 13.962 4.33325C12.642 2.59325 10.6921 1.33325 8.35205 1.33325C4.61705 1.33325 1.60205 4.34825 1.60205 8.08325C1.60205 9.47825 2.02205 10.7683 2.74205 11.8333C3.95705 13.6483 15.1021 25.3333 15.1021 25.3333M15.1021 5.83325C15.1021 5.83325 15.1021 5.83325 16.2421 4.33325C17.5621 2.59325 19.5121 1.33325 21.8521 1.33325C25.5871 1.33325 28.6021 4.34825 28.6021 8.08325C28.6021 9.47825 28.182 10.7683 27.462 11.8333C26.247 13.6483 15.1021 25.3333 15.1021 25.3333" stroke="#8A42FB" stroke-width="2" stroke-linecap="round" stroke-linejoin="round"/>
</svg>
