<svg width="32" height="32" viewBox="0 0 32 32" fill="none" xmlns="http://www.w3.org/2000/svg">
<path d="M24.611 23.75H22.987L22.663 22.131L23.519 20.846C23.71 20.559 23.632 20.171 23.345 19.979C23.057 19.786 22.67 19.865 22.478 20.152L21.716 21.295L21.978 19.201C22.037 18.739 21.893 18.274 21.584 17.924C21.275 17.574 20.831 17.374 20.365 17.374H18.631C18.165 17.374 17.721 17.575 17.412 17.924C17.103 18.273 16.96 18.739 17.018 19.2L17.28 21.294L16.518 20.151C16.326 19.864 15.938 19.787 15.651 19.978C15.364 20.169 15.286 20.558 15.477 20.845L16.333 22.13L16.009 23.749H12.827L16.736 14.971L24.5 18.428L24.806 17.743C26.32 14.343 23.76 9.88901 19.101 7.81401C14.447 5.74101 9.421 6.81901 7.907 10.219L7.602 10.904L15.367 14.362L11.198 23.725C11.194 23.733 11.196 23.742 11.192 23.75H7.5C7.086 23.75 6.75 24.086 6.75 24.5C6.75 24.914 7.086 25.25 7.5 25.25H24.611C25.025 25.25 25.361 24.914 25.361 24.5C25.361 24.086 25.025 23.75 24.611 23.75V23.75ZM18.494 9.18501C19.225 9.51101 19.534 11.502 18.546 14.134L14.78 12.457C16.075 9.96101 17.757 8.85701 18.494 9.18401V9.18501ZM23.671 16.416L19.918 14.745C20.524 13.16 20.756 11.658 20.634 10.443C22.872 12.122 24.092 14.439 23.671 16.416ZM16.117 8.44401C15.136 9.16801 14.179 10.342 13.409 11.847L9.656 10.176C10.841 8.54201 13.376 7.90801 16.117 8.44401V8.44401ZM18.352 18.752C18.394 18.705 18.486 18.625 18.633 18.625H20.367C20.514 18.625 20.606 18.705 20.648 18.752C20.69 18.799 20.757 18.9 20.739 19.046L20.448 21.375H18.551L18.26 19.046C18.241 18.9 18.309 18.799 18.351 18.752H18.352ZM17.513 22.625H21.488L21.713 23.75H17.289L17.514 22.625H17.513Z" fill="white"/>
</svg>
