<svg width="32" height="32" viewBox="0 0 32 32" fill="none" xmlns="http://www.w3.org/2000/svg">
<path d="M18.202 17.5H13.799C11.704 17.5 10 19.204 10 21.298C10 21.574 10.224 21.798 10.5 21.798C10.776 21.798 11 21.574 11 21.298C11 19.755 12.256 18.5 13.799 18.5H18.202C19.745 18.5 21 19.755 21 21.298C21 21.574 21.224 21.798 21.5 21.798C21.776 21.798 22 21.574 22 21.298C22 19.204 20.296 17.5 18.202 17.5Z" fill="white"/>
<path d="M16 16.5C17.93 16.5 19.5 14.93 19.5 13C19.5 11.07 17.93 9.5 16 9.5C14.07 9.5 12.5 11.07 12.5 13C12.5 14.93 14.07 16.5 16 16.5ZM16 10.5C17.379 10.5 18.5 11.622 18.5 13C18.5 14.378 17.379 15.5 16 15.5C14.621 15.5 13.5 14.378 13.5 13C13.5 11.622 14.621 10.5 16 10.5Z" fill="white"/>
<path d="M16 6C10.486 6 6 10.486 6 16C6 21.514 10.486 26 16 26C21.514 26 26 21.514 26 16C26 10.486 21.513 6 16 6ZM16 25C11.037 25 7 20.962 7 16C7 11.038 11.037 7 16 7C20.963 7 25 11.038 25 16C25 20.962 20.963 25 16 25Z" fill="white"/>
</svg>
